<mxfile host="app.diagrams.net" agent="Mozilla/5.0 (X11; Linux x86_64) AppleWebKit/537.36 (KHTML, like Gecko) Chrome/132.0.0.0 Safari/537.36 OPR/117.0.0.0" version="26.1.3">
  <diagram name="Page-1" id="LWM5pOx1Hc2yzzXie8pW">
    <mxGraphModel dx="1360" dy="887" grid="1" gridSize="10" guides="1" tooltips="1" connect="1" arrows="1" fold="1" page="1" pageScale="1" pageWidth="850" pageHeight="1100" math="0" shadow="0">
      <root>
        <mxCell id="0" />
        <mxCell id="1" parent="0" />
        <mxCell id="MV8FpCaYjzvGNN49_YxD-7" style="edgeStyle=orthogonalEdgeStyle;rounded=1;orthogonalLoop=1;jettySize=auto;html=1;curved=0;strokeWidth=2;" parent="1" source="MV8FpCaYjzvGNN49_YxD-2" target="MV8FpCaYjzvGNN49_YxD-3" edge="1">
          <mxGeometry relative="1" as="geometry" />
        </mxCell>
        <mxCell id="MV8FpCaYjzvGNN49_YxD-2" value="" style="image;aspect=fixed;perimeter=ellipsePerimeter;html=1;align=center;shadow=0;dashed=0;spacingTop=3;image=img/lib/active_directory/internet_globe.svg;" parent="1" vertex="1">
          <mxGeometry x="400" y="40" width="50" height="50" as="geometry" />
        </mxCell>
        <mxCell id="MV8FpCaYjzvGNN49_YxD-8" style="edgeStyle=orthogonalEdgeStyle;rounded=1;orthogonalLoop=1;jettySize=auto;html=1;curved=0;strokeWidth=2;" parent="1" source="MV8FpCaYjzvGNN49_YxD-3" target="MV8FpCaYjzvGNN49_YxD-4" edge="1">
          <mxGeometry relative="1" as="geometry" />
        </mxCell>
        <mxCell id="MV8FpCaYjzvGNN49_YxD-3" value="Modem" style="fontColor=#0066CC;verticalAlign=top;verticalLabelPosition=bottom;labelPosition=center;align=center;html=1;outlineConnect=0;fillColor=#CCCCCC;strokeColor=#6881B3;gradientColor=none;gradientDirection=north;strokeWidth=2;shape=mxgraph.networks.modem;" parent="1" vertex="1">
          <mxGeometry x="520" y="50" width="100" height="30" as="geometry" />
        </mxCell>
        <mxCell id="MV8FpCaYjzvGNN49_YxD-10" style="edgeStyle=orthogonalEdgeStyle;rounded=1;orthogonalLoop=1;jettySize=auto;html=1;curved=0;strokeWidth=2;strokeColor=#7EA6E0;entryX=0.5;entryY=0;entryDx=0;entryDy=0;entryPerimeter=0;endArrow=none;startFill=0;" parent="1" source="MV8FpCaYjzvGNN49_YxD-4" target="MV8FpCaYjzvGNN49_YxD-9" edge="1">
          <mxGeometry relative="1" as="geometry">
            <Array as="points">
              <mxPoint x="820" y="65" />
              <mxPoint x="820" y="110" />
              <mxPoint x="500" y="110" />
            </Array>
          </mxGeometry>
        </mxCell>
        <mxCell id="MV8FpCaYjzvGNN49_YxD-4" value="&lt;div&gt;Router (Opnsense)&lt;/div&gt;" style="fontColor=#0066CC;verticalAlign=top;verticalLabelPosition=bottom;labelPosition=center;align=center;html=1;outlineConnect=0;fillColor=#CCCCCC;strokeColor=#6881B3;gradientColor=none;gradientDirection=north;strokeWidth=2;shape=mxgraph.networks.modem;" parent="1" vertex="1">
          <mxGeometry x="700" y="50" width="100" height="30" as="geometry" />
        </mxCell>
        <mxCell id="MV8FpCaYjzvGNN49_YxD-33" style="edgeStyle=orthogonalEdgeStyle;rounded=1;orthogonalLoop=1;jettySize=auto;html=1;entryX=0;entryY=0.25;entryDx=0;entryDy=0;fillColor=#dae8fc;strokeColor=#7EA6E0;strokeWidth=2;curved=0;endArrow=none;startFill=0;" parent="1" source="MV8FpCaYjzvGNN49_YxD-9" target="MV8FpCaYjzvGNN49_YxD-25" edge="1">
          <mxGeometry relative="1" as="geometry">
            <Array as="points">
              <mxPoint x="540" y="210" />
            </Array>
          </mxGeometry>
        </mxCell>
        <mxCell id="MV8FpCaYjzvGNN49_YxD-34" style="edgeStyle=orthogonalEdgeStyle;rounded=1;orthogonalLoop=1;jettySize=auto;html=1;entryX=0;entryY=1;entryDx=0;entryDy=0;curved=0;strokeColor=#97D077;strokeWidth=2;endArrow=none;startFill=0;" parent="1" source="MV8FpCaYjzvGNN49_YxD-9" target="MV8FpCaYjzvGNN49_YxD-25" edge="1">
          <mxGeometry relative="1" as="geometry">
            <Array as="points">
              <mxPoint x="530" y="240" />
            </Array>
          </mxGeometry>
        </mxCell>
        <mxCell id="MV8FpCaYjzvGNN49_YxD-35" style="edgeStyle=orthogonalEdgeStyle;rounded=1;orthogonalLoop=1;jettySize=auto;html=1;entryX=0;entryY=0.5;entryDx=0;entryDy=0;fillColor=#dae8fc;strokeColor=#7EA6E0;curved=0;strokeWidth=2;endArrow=none;startFill=0;" parent="1" source="MV8FpCaYjzvGNN49_YxD-9" target="MV8FpCaYjzvGNN49_YxD-26" edge="1">
          <mxGeometry relative="1" as="geometry">
            <Array as="points">
              <mxPoint x="500" y="420" />
            </Array>
          </mxGeometry>
        </mxCell>
        <mxCell id="MV8FpCaYjzvGNN49_YxD-36" style="edgeStyle=orthogonalEdgeStyle;rounded=1;orthogonalLoop=1;jettySize=auto;html=1;entryX=0;entryY=0.25;entryDx=0;entryDy=0;fillColor=#dae8fc;strokeColor=#7EA6E0;curved=0;strokeWidth=2;endArrow=none;startFill=0;" parent="1" source="MV8FpCaYjzvGNN49_YxD-9" target="MV8FpCaYjzvGNN49_YxD-28" edge="1">
          <mxGeometry relative="1" as="geometry">
            <Array as="points">
              <mxPoint x="520" y="300" />
            </Array>
          </mxGeometry>
        </mxCell>
        <mxCell id="MV8FpCaYjzvGNN49_YxD-39" style="edgeStyle=orthogonalEdgeStyle;rounded=1;orthogonalLoop=1;jettySize=auto;html=1;entryX=0;entryY=0.5;entryDx=0;entryDy=0;strokeColor=#FFD966;curved=0;strokeWidth=2;endArrow=none;startFill=0;" parent="1" source="MV8FpCaYjzvGNN49_YxD-9" target="MV8FpCaYjzvGNN49_YxD-28" edge="1">
          <mxGeometry relative="1" as="geometry">
            <Array as="points">
              <mxPoint x="510" y="320" />
            </Array>
          </mxGeometry>
        </mxCell>
        <mxCell id="MV8FpCaYjzvGNN49_YxD-42" style="edgeStyle=orthogonalEdgeStyle;rounded=1;orthogonalLoop=1;jettySize=auto;html=1;entryX=0;entryY=0.25;entryDx=0;entryDy=0;curved=0;strokeColor=#7EA6E0;strokeWidth=2;endArrow=none;startFill=0;" parent="1" source="MV8FpCaYjzvGNN49_YxD-9" target="MV8FpCaYjzvGNN49_YxD-29" edge="1">
          <mxGeometry relative="1" as="geometry">
            <Array as="points">
              <mxPoint x="500" y="500" />
            </Array>
          </mxGeometry>
        </mxCell>
        <mxCell id="MV8FpCaYjzvGNN49_YxD-43" style="edgeStyle=orthogonalEdgeStyle;rounded=1;orthogonalLoop=1;jettySize=auto;html=1;entryX=0;entryY=0.5;entryDx=0;entryDy=0;curved=0;strokeColor=#97D077;strokeWidth=2;endArrow=none;startFill=0;" parent="1" source="MV8FpCaYjzvGNN49_YxD-9" target="MV8FpCaYjzvGNN49_YxD-29" edge="1">
          <mxGeometry relative="1" as="geometry">
            <Array as="points">
              <mxPoint x="490" y="520" />
            </Array>
          </mxGeometry>
        </mxCell>
        <mxCell id="MV8FpCaYjzvGNN49_YxD-51" style="edgeStyle=orthogonalEdgeStyle;rounded=1;orthogonalLoop=1;jettySize=auto;html=1;entryX=0;entryY=0.5;entryDx=0;entryDy=0;curved=0;strokeColor=#7EA6E0;strokeWidth=2;" parent="1" source="MV8FpCaYjzvGNN49_YxD-9" target="MV8FpCaYjzvGNN49_YxD-49" edge="1">
          <mxGeometry relative="1" as="geometry">
            <mxPoint x="450" y="310" as="sourcePoint" />
            <Array as="points">
              <mxPoint x="480" y="640" />
            </Array>
          </mxGeometry>
        </mxCell>
        <mxCell id="MV8FpCaYjzvGNN49_YxD-56" style="edgeStyle=orthogonalEdgeStyle;rounded=1;orthogonalLoop=1;jettySize=auto;html=1;entryX=0;entryY=0.5;entryDx=0;entryDy=0;curved=0;strokeColor=#FFD966;strokeWidth=2;endArrow=none;startFill=0;" parent="1" source="MV8FpCaYjzvGNN49_YxD-9" target="MV8FpCaYjzvGNN49_YxD-55" edge="1">
          <mxGeometry relative="1" as="geometry">
            <Array as="points">
              <mxPoint x="470" y="1000" />
            </Array>
          </mxGeometry>
        </mxCell>
        <mxCell id="MV8FpCaYjzvGNN49_YxD-57" style="edgeStyle=orthogonalEdgeStyle;rounded=1;orthogonalLoop=1;jettySize=auto;html=1;entryX=0;entryY=0.5;entryDx=0;entryDy=0;curved=0;strokeColor=#FFD966;strokeWidth=2;endArrow=none;startFill=0;" parent="1" source="MV8FpCaYjzvGNN49_YxD-9" target="MV8FpCaYjzvGNN49_YxD-54" edge="1">
          <mxGeometry relative="1" as="geometry">
            <Array as="points">
              <mxPoint x="470" y="960" />
              <mxPoint x="640" y="960" />
              <mxPoint x="640" y="1000" />
            </Array>
          </mxGeometry>
        </mxCell>
        <mxCell id="MV8FpCaYjzvGNN49_YxD-9" value="" style="fontColor=#0066CC;verticalAlign=top;verticalLabelPosition=bottom;labelPosition=center;align=center;html=1;outlineConnect=0;fillColor=#CCCCCC;strokeColor=#6881B3;gradientColor=none;gradientDirection=north;strokeWidth=2;shape=mxgraph.networks.switch;" parent="1" vertex="1">
          <mxGeometry x="450" y="130" width="100" height="30" as="geometry" />
        </mxCell>
        <mxCell id="MV8FpCaYjzvGNN49_YxD-11" style="edgeStyle=orthogonalEdgeStyle;rounded=1;orthogonalLoop=1;jettySize=auto;html=1;entryX=1;entryY=0.5;entryDx=0;entryDy=0;entryPerimeter=0;curved=0;strokeColor=#A680B8;strokeWidth=2;endArrow=none;startFill=0;" parent="1" source="MV8FpCaYjzvGNN49_YxD-4" target="MV8FpCaYjzvGNN49_YxD-9" edge="1">
          <mxGeometry relative="1" as="geometry">
            <Array as="points">
              <mxPoint x="830" y="65" />
              <mxPoint x="830" y="145" />
            </Array>
          </mxGeometry>
        </mxCell>
        <mxCell id="MV8FpCaYjzvGNN49_YxD-12" value="" style="rounded=1;whiteSpace=wrap;html=1;fillColor=none;" parent="1" vertex="1">
          <mxGeometry x="40" y="40" width="240" height="480" as="geometry" />
        </mxCell>
        <mxCell id="MV8FpCaYjzvGNN49_YxD-14" value="Legend" style="text;html=1;align=center;verticalAlign=middle;whiteSpace=wrap;rounded=0;" parent="1" vertex="1">
          <mxGeometry x="130" y="50" width="60" height="30" as="geometry" />
        </mxCell>
        <mxCell id="MV8FpCaYjzvGNN49_YxD-16" value="" style="endArrow=none;html=1;rounded=0;strokeWidth=2;startFill=0;" parent="1" edge="1">
          <mxGeometry relative="1" as="geometry">
            <mxPoint x="160" y="104.5" as="sourcePoint" />
            <mxPoint x="260" y="104.5" as="targetPoint" />
          </mxGeometry>
        </mxCell>
        <mxCell id="MV8FpCaYjzvGNN49_YxD-19" value="Internet" style="text;html=1;align=center;verticalAlign=middle;whiteSpace=wrap;rounded=0;" parent="1" vertex="1">
          <mxGeometry x="50" y="90" width="60" height="30" as="geometry" />
        </mxCell>
        <mxCell id="MV8FpCaYjzvGNN49_YxD-25" value="CA server" style="shape=image;verticalLabelPosition=bottom;labelBackgroundColor=default;verticalAlign=top;aspect=fixed;imageAspect=0;image=https://creazilla-store.fra1.digitaloceanspaces.com/icons/3254270/raspberry-pi-icon-md.png;" parent="1" vertex="1">
          <mxGeometry x="680" y="200" width="31.3" height="40" as="geometry" />
        </mxCell>
        <mxCell id="MV8FpCaYjzvGNN49_YxD-26" value="pikvm" style="shape=image;verticalLabelPosition=bottom;labelBackgroundColor=default;verticalAlign=top;aspect=fixed;imageAspect=0;image=https://creazilla-store.fra1.digitaloceanspaces.com/icons/3254270/raspberry-pi-icon-md.png;" parent="1" vertex="1">
          <mxGeometry x="680" y="400" width="31.3" height="40" as="geometry" />
        </mxCell>
        <mxCell id="MV8FpCaYjzvGNN49_YxD-27" value="print" style="shape=image;verticalLabelPosition=bottom;labelBackgroundColor=default;verticalAlign=top;aspect=fixed;imageAspect=0;image=https://creazilla-store.fra1.digitaloceanspaces.com/icons/3254270/raspberry-pi-icon-md.png;" parent="1" vertex="1">
          <mxGeometry x="320" y="440" width="31.3" height="40" as="geometry" />
        </mxCell>
        <mxCell id="MV8FpCaYjzvGNN49_YxD-28" value="bootstrap" style="shape=image;html=1;verticalAlign=top;verticalLabelPosition=bottom;labelBackgroundColor=#ffffff;imageAspect=0;aspect=fixed;image=https://cdn2.iconfinder.com/data/icons/whcompare-isometric-web-hosting-servers/50/root-access-128.png" parent="1" vertex="1">
          <mxGeometry x="660" y="280" width="80" height="80" as="geometry" />
        </mxCell>
        <mxCell id="MV8FpCaYjzvGNN49_YxD-29" value="nas00" style="image;html=1;image=img/lib/clip_art/networking/Print_Server_128x128.png" parent="1" vertex="1">
          <mxGeometry x="655.65" y="480" width="80" height="80" as="geometry" />
        </mxCell>
        <mxCell id="MV8FpCaYjzvGNN49_YxD-58" style="edgeStyle=orthogonalEdgeStyle;rounded=1;orthogonalLoop=1;jettySize=auto;html=1;entryX=0.5;entryY=0;entryDx=0;entryDy=0;curved=0;strokeColor=#EA6B66;strokeWidth=2;endArrow=none;startFill=0;dashed=1;" parent="1" source="MV8FpCaYjzvGNN49_YxD-31" target="MV8FpCaYjzvGNN49_YxD-27" edge="1">
          <mxGeometry relative="1" as="geometry" />
        </mxCell>
        <mxCell id="MV8FpCaYjzvGNN49_YxD-31" value="&lt;font style=&quot;font-size: 12px;&quot;&gt;Access point&lt;/font&gt;" style="html=1;strokeWidth=1;shadow=0;dashed=0;shape=mxgraph.ios7.misc.wifi;fillColor=#007AFF;strokeColor=none;buttonText=;strokeColor2=#222222;fontColor=#222222;fontSize=8;verticalLabelPosition=bottom;verticalAlign=top;align=center;sketch=0;" parent="1" vertex="1">
          <mxGeometry x="320" y="240" width="80" height="80" as="geometry" />
        </mxCell>
        <mxCell id="MV8FpCaYjzvGNN49_YxD-44" value="hv02" style="shape=image;verticalLabelPosition=bottom;labelBackgroundColor=default;verticalAlign=top;aspect=fixed;imageAspect=0;image=https://www.netdata.cloud/img/proxmox.png;" parent="1" vertex="1">
          <mxGeometry x="660" y="840" width="80" height="80" as="geometry" />
        </mxCell>
        <mxCell id="MV8FpCaYjzvGNN49_YxD-47" value="hv01" style="shape=image;verticalLabelPosition=bottom;labelBackgroundColor=default;verticalAlign=top;aspect=fixed;imageAspect=0;image=https://www.netdata.cloud/img/proxmox.png;" parent="1" vertex="1">
          <mxGeometry x="660" y="720" width="80" height="80" as="geometry" />
        </mxCell>
        <mxCell id="MV8FpCaYjzvGNN49_YxD-49" value="hv00" style="shape=image;verticalLabelPosition=bottom;labelBackgroundColor=default;verticalAlign=top;aspect=fixed;imageAspect=0;image=https://www.netdata.cloud/img/proxmox.png;" parent="1" vertex="1">
          <mxGeometry x="660" y="600" width="80" height="80" as="geometry" />
        </mxCell>
        <mxCell id="MV8FpCaYjzvGNN49_YxD-50" style="edgeStyle=orthogonalEdgeStyle;rounded=1;orthogonalLoop=1;jettySize=auto;html=1;entryX=0.475;entryY=-0.025;entryDx=0;entryDy=0;entryPerimeter=0;curved=0;strokeColor=#A680B8;strokeWidth=2;endArrow=none;startFill=0;" parent="1" source="MV8FpCaYjzvGNN49_YxD-9" target="MV8FpCaYjzvGNN49_YxD-31" edge="1">
          <mxGeometry relative="1" as="geometry" />
        </mxCell>
        <mxCell id="MV8FpCaYjzvGNN49_YxD-52" style="edgeStyle=orthogonalEdgeStyle;rounded=1;orthogonalLoop=1;jettySize=auto;html=1;entryX=0;entryY=0.5;entryDx=0;entryDy=0;curved=0;strokeColor=#7EA6E0;strokeWidth=2;" parent="1" source="MV8FpCaYjzvGNN49_YxD-9" target="MV8FpCaYjzvGNN49_YxD-47" edge="1">
          <mxGeometry relative="1" as="geometry">
            <mxPoint x="490" y="170" as="sourcePoint" />
            <mxPoint x="670" y="650" as="targetPoint" />
            <Array as="points">
              <mxPoint x="480" y="760" />
            </Array>
          </mxGeometry>
        </mxCell>
        <mxCell id="MV8FpCaYjzvGNN49_YxD-53" style="edgeStyle=orthogonalEdgeStyle;rounded=1;orthogonalLoop=1;jettySize=auto;html=1;entryX=0;entryY=0.5;entryDx=0;entryDy=0;curved=0;strokeColor=#7EA6E0;strokeWidth=2;" parent="1" source="MV8FpCaYjzvGNN49_YxD-9" target="MV8FpCaYjzvGNN49_YxD-44" edge="1">
          <mxGeometry relative="1" as="geometry">
            <mxPoint x="500" y="180" as="sourcePoint" />
            <mxPoint x="670" y="770" as="targetPoint" />
            <Array as="points">
              <mxPoint x="480" y="880" />
            </Array>
          </mxGeometry>
        </mxCell>
        <mxCell id="MV8FpCaYjzvGNN49_YxD-54" value="k8s worker" style="shape=image;html=1;verticalAlign=top;verticalLabelPosition=bottom;labelBackgroundColor=#ffffff;imageAspect=0;aspect=fixed;image=https://cdn2.iconfinder.com/data/icons/whcompare-isometric-web-hosting-servers/50/root-access-128.png" parent="1" vertex="1">
          <mxGeometry x="660" y="960" width="80" height="80" as="geometry" />
        </mxCell>
        <mxCell id="MV8FpCaYjzvGNN49_YxD-55" value="k8s worker" style="image;html=1;image=img/lib/clip_art/networking/Print_Server_128x128.png" parent="1" vertex="1">
          <mxGeometry x="520" y="960" width="80" height="80" as="geometry" />
        </mxCell>
        <mxCell id="MV8FpCaYjzvGNN49_YxD-61" value="" style="group" parent="1" vertex="1" connectable="0">
          <mxGeometry x="50" y="150" width="210" height="30" as="geometry" />
        </mxCell>
        <mxCell id="MV8FpCaYjzvGNN49_YxD-21" value="vlans" style="text;html=1;align=center;verticalAlign=middle;whiteSpace=wrap;rounded=0;" parent="MV8FpCaYjzvGNN49_YxD-61" vertex="1">
          <mxGeometry width="60" height="30" as="geometry" />
        </mxCell>
        <mxCell id="MV8FpCaYjzvGNN49_YxD-23" value="" style="endArrow=none;html=1;rounded=0;strokeWidth=2;fillColor=#e1d5e7;strokeColor=#A680B8;startFill=0;" parent="MV8FpCaYjzvGNN49_YxD-61" edge="1">
          <mxGeometry relative="1" as="geometry">
            <mxPoint x="110" y="14.5" as="sourcePoint" />
            <mxPoint x="210" y="14.5" as="targetPoint" />
          </mxGeometry>
        </mxCell>
        <mxCell id="MV8FpCaYjzvGNN49_YxD-62" value="" style="group" parent="1" vertex="1" connectable="0">
          <mxGeometry x="50" y="210" width="210" height="30" as="geometry" />
        </mxCell>
        <mxCell id="MV8FpCaYjzvGNN49_YxD-20" value="mgmt" style="text;html=1;align=center;verticalAlign=middle;whiteSpace=wrap;rounded=0;" parent="MV8FpCaYjzvGNN49_YxD-62" vertex="1">
          <mxGeometry width="60" height="30" as="geometry" />
        </mxCell>
        <mxCell id="MV8FpCaYjzvGNN49_YxD-22" value="" style="endArrow=none;html=1;rounded=0;strokeWidth=2;fillColor=#dae8fc;strokeColor=#7EA6E0;startFill=0;" parent="MV8FpCaYjzvGNN49_YxD-62" edge="1">
          <mxGeometry relative="1" as="geometry">
            <mxPoint x="110" y="14.5" as="sourcePoint" />
            <mxPoint x="210" y="14.5" as="targetPoint" />
          </mxGeometry>
        </mxCell>
        <mxCell id="MV8FpCaYjzvGNN49_YxD-63" value="wireless" style="text;html=1;align=center;verticalAlign=middle;whiteSpace=wrap;rounded=0;" parent="1" vertex="1">
          <mxGeometry x="50" y="120" width="60" height="30" as="geometry" />
        </mxCell>
        <mxCell id="MV8FpCaYjzvGNN49_YxD-64" value="" style="endArrow=none;html=1;rounded=0;strokeWidth=2;startFill=0;dashed=1;" parent="1" edge="1">
          <mxGeometry relative="1" as="geometry">
            <mxPoint x="160" y="134.5" as="sourcePoint" />
            <mxPoint x="260" y="134.5" as="targetPoint" />
          </mxGeometry>
        </mxCell>
        <mxCell id="MV8FpCaYjzvGNN49_YxD-66" value="" style="group" parent="1" vertex="1" connectable="0">
          <mxGeometry x="50" y="240" width="210" height="30" as="geometry" />
        </mxCell>
        <mxCell id="MV8FpCaYjzvGNN49_YxD-67" value="dmz" style="text;html=1;align=center;verticalAlign=middle;whiteSpace=wrap;rounded=0;" parent="MV8FpCaYjzvGNN49_YxD-66" vertex="1">
          <mxGeometry width="60" height="30" as="geometry" />
        </mxCell>
        <mxCell id="MV8FpCaYjzvGNN49_YxD-68" value="" style="endArrow=none;html=1;rounded=0;strokeWidth=2;fillColor=#fff2cc;strokeColor=#0000CC;startFill=0;" parent="MV8FpCaYjzvGNN49_YxD-66" edge="1">
          <mxGeometry relative="1" as="geometry">
            <mxPoint x="110" y="14.5" as="sourcePoint" />
            <mxPoint x="210" y="14.5" as="targetPoint" />
          </mxGeometry>
        </mxCell>
        <mxCell id="MV8FpCaYjzvGNN49_YxD-59" value="" style="group" parent="1" vertex="1" connectable="0">
          <mxGeometry x="50" y="330" width="210" height="30" as="geometry" />
        </mxCell>
        <mxCell id="MV8FpCaYjzvGNN49_YxD-40" value="k8s00" style="text;html=1;align=center;verticalAlign=middle;whiteSpace=wrap;rounded=0;" parent="MV8FpCaYjzvGNN49_YxD-59" vertex="1">
          <mxGeometry width="60" height="30" as="geometry" />
        </mxCell>
        <mxCell id="MV8FpCaYjzvGNN49_YxD-41" value="" style="endArrow=none;html=1;rounded=0;strokeWidth=2;fillColor=#fff2cc;strokeColor=#FFD966;startFill=0;" parent="MV8FpCaYjzvGNN49_YxD-59" edge="1">
          <mxGeometry relative="1" as="geometry">
            <mxPoint x="110" y="14.5" as="sourcePoint" />
            <mxPoint x="210" y="14.5" as="targetPoint" />
          </mxGeometry>
        </mxCell>
        <mxCell id="MV8FpCaYjzvGNN49_YxD-84" value="" style="group" parent="1" vertex="1" connectable="0">
          <mxGeometry x="50" y="390" width="210" height="30" as="geometry" />
        </mxCell>
        <mxCell id="MV8FpCaYjzvGNN49_YxD-85" value="iot" style="text;html=1;align=center;verticalAlign=middle;whiteSpace=wrap;rounded=0;" parent="MV8FpCaYjzvGNN49_YxD-84" vertex="1">
          <mxGeometry width="60" height="30" as="geometry" />
        </mxCell>
        <mxCell id="MV8FpCaYjzvGNN49_YxD-86" value="" style="endArrow=none;html=1;rounded=0;strokeWidth=2;fillColor=#fff2cc;strokeColor=#006633;startFill=0;" parent="MV8FpCaYjzvGNN49_YxD-84" edge="1">
          <mxGeometry relative="1" as="geometry">
            <mxPoint x="110" y="14.5" as="sourcePoint" />
            <mxPoint x="210" y="14.5" as="targetPoint" />
          </mxGeometry>
        </mxCell>
        <mxCell id="MV8FpCaYjzvGNN49_YxD-81" value="" style="group" parent="1" vertex="1" connectable="0">
          <mxGeometry x="50" y="360" width="210" height="30" as="geometry" />
        </mxCell>
        <mxCell id="MV8FpCaYjzvGNN49_YxD-82" value="casa" style="text;html=1;align=center;verticalAlign=middle;whiteSpace=wrap;rounded=0;" parent="MV8FpCaYjzvGNN49_YxD-81" vertex="1">
          <mxGeometry width="60" height="30" as="geometry" />
        </mxCell>
        <mxCell id="MV8FpCaYjzvGNN49_YxD-83" value="" style="endArrow=none;html=1;rounded=0;strokeWidth=2;fillColor=#fff2cc;strokeColor=#EA6B66;startFill=0;" parent="MV8FpCaYjzvGNN49_YxD-81" edge="1">
          <mxGeometry relative="1" as="geometry">
            <mxPoint x="110" y="14.5" as="sourcePoint" />
            <mxPoint x="210" y="14.5" as="targetPoint" />
          </mxGeometry>
        </mxCell>
        <mxCell id="MV8FpCaYjzvGNN49_YxD-87" value="" style="group" parent="1" vertex="1" connectable="0">
          <mxGeometry x="50" y="300" width="210" height="30" as="geometry" />
        </mxCell>
        <mxCell id="MV8FpCaYjzvGNN49_YxD-37" value="service" style="text;html=1;align=center;verticalAlign=middle;whiteSpace=wrap;rounded=0;" parent="MV8FpCaYjzvGNN49_YxD-87" vertex="1">
          <mxGeometry width="60" height="30" as="geometry" />
        </mxCell>
        <mxCell id="MV8FpCaYjzvGNN49_YxD-38" value="" style="endArrow=none;html=1;rounded=0;strokeWidth=2;fillColor=#d5e8d4;strokeColor=#97D077;startFill=0;" parent="MV8FpCaYjzvGNN49_YxD-87" edge="1">
          <mxGeometry relative="1" as="geometry">
            <mxPoint x="110" y="14.5" as="sourcePoint" />
            <mxPoint x="210" y="14.5" as="targetPoint" />
          </mxGeometry>
        </mxCell>
        <mxCell id="MV8FpCaYjzvGNN49_YxD-88" value="" style="group" parent="1" vertex="1" connectable="0">
          <mxGeometry x="50" y="270" width="210" height="30" as="geometry" />
        </mxCell>
        <mxCell id="MV8FpCaYjzvGNN49_YxD-76" value="work" style="text;html=1;align=center;verticalAlign=middle;whiteSpace=wrap;rounded=0;" parent="MV8FpCaYjzvGNN49_YxD-88" vertex="1">
          <mxGeometry width="60" height="30" as="geometry" />
        </mxCell>
        <mxCell id="MV8FpCaYjzvGNN49_YxD-77" value="" style="endArrow=none;html=1;rounded=0;strokeWidth=2;fillColor=#fff2cc;strokeColor=#660033;startFill=0;" parent="MV8FpCaYjzvGNN49_YxD-88" edge="1">
          <mxGeometry relative="1" as="geometry">
            <mxPoint x="110" y="14.5" as="sourcePoint" />
            <mxPoint x="210" y="14.5" as="targetPoint" />
          </mxGeometry>
        </mxCell>
        <mxCell id="MV8FpCaYjzvGNN49_YxD-89" value="" style="group" parent="1" vertex="1" connectable="0">
          <mxGeometry x="50" y="420" width="210" height="30" as="geometry" />
        </mxCell>
        <mxCell id="MV8FpCaYjzvGNN49_YxD-90" value="monitoring" style="text;html=1;align=center;verticalAlign=middle;whiteSpace=wrap;rounded=0;" parent="MV8FpCaYjzvGNN49_YxD-89" vertex="1">
          <mxGeometry width="60" height="30" as="geometry" />
        </mxCell>
        <mxCell id="MV8FpCaYjzvGNN49_YxD-91" value="" style="endArrow=none;html=1;rounded=0;strokeWidth=2;fillColor=#fff2cc;strokeColor=#E1D5E7;startFill=0;" parent="MV8FpCaYjzvGNN49_YxD-89" edge="1">
          <mxGeometry relative="1" as="geometry">
            <mxPoint x="110" y="14.5" as="sourcePoint" />
            <mxPoint x="210" y="14.5" as="targetPoint" />
          </mxGeometry>
        </mxCell>
        <mxCell id="MV8FpCaYjzvGNN49_YxD-92" value="" style="group" parent="1" vertex="1" connectable="0">
          <mxGeometry x="50" y="450" width="210" height="30" as="geometry" />
        </mxCell>
        <mxCell id="MV8FpCaYjzvGNN49_YxD-93" value="guest" style="text;html=1;align=center;verticalAlign=middle;whiteSpace=wrap;rounded=0;" parent="MV8FpCaYjzvGNN49_YxD-92" vertex="1">
          <mxGeometry width="60" height="30" as="geometry" />
        </mxCell>
        <mxCell id="MV8FpCaYjzvGNN49_YxD-94" value="" style="endArrow=none;html=1;rounded=0;strokeWidth=2;fillColor=#fff2cc;strokeColor=#FF00FF;startFill=0;" parent="MV8FpCaYjzvGNN49_YxD-92" edge="1">
          <mxGeometry relative="1" as="geometry">
            <mxPoint x="110" y="14.5" as="sourcePoint" />
            <mxPoint x="210" y="14.5" as="targetPoint" />
          </mxGeometry>
        </mxCell>
      </root>
    </mxGraphModel>
  </diagram>
</mxfile>
